<?xml version="1.0" encoding="UTF-8" standalone="no"?>
<!-- Created with Inkscape (http://www.inkscape.org/) -->

<svg
   xmlns:dc="http://purl.org/dc/elements/1.1/"
   xmlns:cc="http://creativecommons.org/ns#"
   xmlns:rdf="http://www.w3.org/1999/02/22-rdf-syntax-ns#"
   xmlns:svg="http://www.w3.org/2000/svg"
   xmlns="http://www.w3.org/2000/svg"
   xmlns:xlink="http://www.w3.org/1999/xlink"
   version="1.1"
   width="128"
   height="128"
   id="svg2">
  <defs
     id="defs4" />
  <metadata
     id="metadata7">
    <rdf:RDF>
      <cc:Work
         rdf:about="">
        <dc:format>image/svg+xml</dc:format>
        <dc:type
           rdf:resource="http://purl.org/dc/dcmitype/StillImage" />
        <dc:title></dc:title>
      </cc:Work>
    </rdf:RDF>
  </metadata>
  <g
     transform="matrix(1.0692573,0,0,1.0692573,-328.34726,-503.5515)"
     id="layer1">
    <g
       id="g5409">
      <g
         transform="translate(5.418238,0)"
         id="g5386">
        <rect
           width="90.304001"
           height="50.999996"
           x="316.36414"
           y="472.80621"
           id="rect4667-3"
           style="fill:none;stroke:none" />
        <g
           id="text4673-8"
           style="font-size:64px;font-style:normal;font-variant:normal;font-weight:500;font-stretch:normal;text-align:start;line-height:125%;letter-spacing:0px;word-spacing:0px;writing-mode:lr-tb;text-anchor:start;fill:#008000;fill-opacity:1;stroke:none;font-family:Inconsolata;-inkscape-font-specification:Inconsolata Medium">
          <path
             d="m 316.36413,483.82622 0,3.968 26.304,0 0,-3.968"
             id="path5371"
             style="fill:#c00000;fill-opacity:1" />
          <path
             d="m 348.36413,483.82622 0,3.968 26.304,0 0,-3.968"
             id="path5373"
             style="fill:#c00000;fill-opacity:1" />
          <path
             d="m 380.36413,483.82622 0,3.968 26.304,0 0,-3.968"
             id="path5375"
             style="fill:#c00000;fill-opacity:1" />
        </g>
        <g
           id="text5366"
           style="font-size:64px;font-style:normal;font-variant:normal;font-weight:500;font-stretch:normal;text-align:start;line-height:125%;letter-spacing:0px;word-spacing:0px;writing-mode:lr-tb;text-anchor:start;fill:#008000;fill-opacity:1;stroke:none;font-family:Inconsolata;-inkscape-font-specification:Inconsolata Medium">
          <path
             d="m 327.69213,496.99019 0,10.88 -11.328,0 0,3.968 11.328,0 0,11.968 4.032,0 0,-11.968 10.944,0 0,-3.968 -10.944,0 0,-10.88 -4.032,0"
             id="path5378" />
          <path
             d="m 359.69213,496.99019 0,10.88 -11.328,0 0,3.968 11.328,0 0,11.968 4.032,0 0,-11.968 10.944,0 0,-3.968 -10.944,0 0,-10.88 -4.032,0"
             id="path5380" />
          <path
             d="m 391.69213,496.99019 0,10.88 -11.328,0 0,3.968 11.328,0 0,11.968 4.032,0 0,-11.968 10.944,0 0,-3.968 -10.944,0 0,-10.88 -4.032,0"
             id="path5382" />
        </g>
      </g>
      <use
         id="use5399"
         x="0"
         y="0"
         width="744.09448"
         height="1052.3622"
         xlink:href="#g5386" />
      <use
         transform="matrix(0.8,0,0,0.8,82.417275,133.65028)"
         id="use5401"
         style="opacity:0.85"
         x="0"
         y="0"
         width="744.09448"
         height="1052.3622"
         xlink:href="#g5386" />
      <use
         transform="matrix(0.6,0,0,0.6,164.83455,260.05454)"
         id="use5403"
         style="opacity:0.7"
         x="0"
         y="0"
         width="744.09448"
         height="1052.3622"
         xlink:href="#g5386" />
      <use
         transform="matrix(0.4,0,0,0.4,247.25182,379.25208)"
         id="use5405"
         style="opacity:0.55"
         x="0"
         y="0"
         width="744.09448"
         height="1052.3622"
         xlink:href="#g5386" />
    </g>
  </g>
</svg>
